<svg width="62" height="62" viewBox="0 0 62 62" fill="none" xmlns="http://www.w3.org/2000/svg">
<g id="mingcute:line-app-fill">
<g id="Group">
<path id="Vector" fill-rule="evenodd" clip-rule="evenodd" d="M31.0001 7.75C44.8054 7.75 56.8334 17.1611 56.8334 29.7083C56.8334 36.0556 53.3821 41.54 48.5693 45.9575C43.7463 50.3879 37.3086 53.9917 30.6668 56.6499C30.0002 56.9185 29.2565 56.9235 28.5863 56.664C27.9162 56.4044 27.3698 55.8998 27.0579 55.2523C26.7892 54.6866 26.7221 54.0821 26.704 53.4698L26.6937 52.0877C26.6878 51.9359 26.6775 51.7843 26.6627 51.6331C26.5748 50.7315 26.3372 50.1606 25.3891 49.9927C14.3324 48.0655 5.16675 40.6617 5.16675 29.7083C5.16675 17.1611 17.1947 7.75 31.0001 7.75ZM36.1667 23.25C35.4816 23.25 34.8245 23.5222 34.3401 24.0066C33.8556 24.4911 33.5834 25.1482 33.5834 25.8333V26.4482L31.6924 24.18C31.3525 23.7724 30.8953 23.4794 30.383 23.3408C29.8707 23.2022 29.3281 23.2248 28.8291 23.4054C28.3301 23.5861 27.8988 23.916 27.5939 24.3504C27.289 24.7848 27.1253 25.3026 27.1251 25.8333V33.5833C27.1251 34.2685 27.3973 34.9256 27.8817 35.41C28.3662 35.8945 29.0233 36.1667 29.7084 36.1667C30.3936 36.1667 31.0506 35.8945 31.5351 35.41C32.0196 34.9256 32.2917 34.2685 32.2917 33.5833V32.9685L34.1827 35.2367C34.5226 35.6443 34.9798 35.9373 35.4921 36.0759C36.0045 36.2145 36.547 36.1919 37.0461 36.0113C37.5451 35.8306 37.9764 35.5006 38.2813 35.0662C38.5861 34.6318 38.7498 34.1141 38.7501 33.5833V25.8333C38.7501 25.1482 38.4779 24.4911 37.9934 24.0066C37.509 23.5222 36.8519 23.25 36.1667 23.25ZM15.5001 23.25C14.8149 23.25 14.1579 23.5222 13.6734 24.0066C13.1889 24.4911 12.9167 25.1482 12.9167 25.8333V33.5833C12.9167 34.2685 13.1889 34.9256 13.6734 35.41C14.1579 35.8945 14.8149 36.1667 15.5001 36.1667H18.0834C18.7686 36.1667 19.4256 35.8945 19.9101 35.41C20.3946 34.9256 20.6667 34.2685 20.6667 33.5833C20.6667 32.8982 20.3946 32.2411 19.9101 31.7566C19.4256 31.2722 18.7686 31 18.0834 31V25.8333C18.0834 25.1482 17.8112 24.4911 17.3268 24.0066C16.8423 23.5222 16.1852 23.25 15.5001 23.25ZM23.2501 23.25C22.6173 23.2501 22.0066 23.4824 21.5338 23.9028C21.0609 24.3233 20.7589 24.9027 20.6848 25.5311L20.6667 25.8333V33.5833C20.6675 34.2418 20.9196 34.8751 21.3716 35.3539C21.8236 35.8327 22.4414 36.1208 23.0987 36.1594C23.756 36.1979 24.4032 35.9841 24.9081 35.5615C25.4131 35.1389 25.7376 34.5394 25.8153 33.8856L25.8334 33.5833V25.8333C25.8334 25.1482 25.5612 24.4911 25.0768 24.0066C24.5923 23.5222 23.9352 23.25 23.2501 23.25ZM46.5001 23.25H42.6251C41.9923 23.2501 41.3816 23.4824 40.9088 23.9028C40.4359 24.3233 40.1339 24.9027 40.0598 25.5311L40.0417 25.8333V33.5833C40.0418 34.2161 40.2741 34.8268 40.6946 35.2996C41.1151 35.7725 41.6944 36.0746 42.3228 36.1486L42.6251 36.1667H46.5001C47.1585 36.1659 47.7918 35.9138 48.2706 35.4618C48.7494 35.0098 49.0375 34.392 49.0761 33.7347C49.1147 33.0774 48.9008 32.4302 48.4782 31.9253C48.0556 31.4203 47.4562 31.0958 46.8023 31.0181L46.5001 31H46.1539C46.3526 30.6559 46.4693 30.2706 46.4948 29.8741C46.5204 29.4776 46.4541 29.0805 46.3012 28.7137L46.1539 28.4167H46.5001C47.1585 28.4159 47.7918 28.1638 48.2706 27.7118C48.7494 27.2598 49.0375 26.642 49.0761 25.9847C49.1147 25.3274 48.9008 24.6802 48.4782 24.1753C48.0556 23.6703 47.4562 23.3459 46.8023 23.2681L46.5001 23.25Z" fill="black"/>
</g>
</g>
</svg>
