<svg width="56" height="56" viewBox="0 0 56 56" fill="none" xmlns="http://www.w3.org/2000/svg">
<g id="ic:round-tiktok">
<path id="Vector" d="M38.7335 13.58C37.1388 11.7589 36.2599 9.4206 36.2601 7H29.0501V35.9333C28.9957 37.4994 28.335 38.9832 27.2075 40.0715C26.08 41.1598 24.5738 41.7676 23.0068 41.7667C19.6935 41.7667 16.9401 39.06 16.9401 35.7C16.9401 31.6867 20.8135 28.6767 24.8035 29.9133V22.54C16.7535 21.4667 9.70679 27.72 9.70679 35.7C9.70679 43.47 16.1468 49 22.9835 49C30.3101 49 36.2601 43.05 36.2601 35.7V21.0233C39.1838 23.123 42.694 24.2495 46.2935 24.2433V17.0333C46.2935 17.0333 41.9068 17.2433 38.7335 13.58Z" fill="black"/>
</g>
</svg>
